# xmcd
#
# Track frame offsets:
#	150
#	18412
#	36585
#	49545
#	64647
#	77740
#	95270
#	115310
#	132942
#	149212
#	163827
#	179930
#	195925
#	209662
#	226567
#	243682
#	261457
#	279965
#	297872
#	313700
#	331410
#
# Disc length: 4629 seconds
# Revision: 33
# Processed by: cddbd v1.5.2PL0 Copyright (c) Steve Scherf et al.
# Submitted via: dBpowerAMP V12.0
#
DISCID=43121315
DTITLE=Various Artist - Greatest Hits
DYEAR=2004
DGENRE=Country
TTITLE0=Shania Twain - Forever and For Always
TTITLE1=Shania Twain - I'm Gonna Getcha Good!
TTITLE2=Shania Twain - Up!
TTITLE3=Shania Twain - Ka-Ching!
TTITLE4=Shania Twain - Come On Over
TTITLE5=Shania Twain - Man! I Feel Like A Woman!
TTITLE6=Shania Twain - That Don't Impress Me Much
TTITLE7=Shania Twain - From This Moment On
TTITLE8=Shania Twain - Honey, I'm Home
TTITLE9=Shania Twain - You're Still The One
TTITLE10=Shania Twain - Don't Be Stupid (You Know I Love You)
TTITLE11=Shania Twain - Love Gets Me Every Time
TTITLE12=Shania Twain - No One Needs To Know
TTITLE13=Shania Twain - You Win My Love
TTITLE14=Shania Twain - (If You're Not In It For Love) I'm Outta Here!
TTITLE15=Shania Twain - The Woman In Me (Needs The Man In You)
TTITLE16=Shania Twain - Any Man Of Mine
TTITLE17=Shania Twain - Whose Bed Have Your Boots Been Under?
TTITLE18=Shania Twain and Mark McGrath - Party For Two
TTITLE19=Shania Twain - Don't!
TTITLE20=Shania Twain - I Ain't No Quitter
EXTD=
EXTT0=
EXTT1=
EXTT2=
EXTT3=
EXTT4=
EXTT5=
EXTT6=
EXTT7=
EXTT8=
EXTT9=
EXTT10=
EXTT11=
EXTT12=
EXTT13=
EXTT14=
EXTT15=
EXTT16=
EXTT17=
EXTT18=
EXTT19=
EXTT20=
PLAYORDER=
